<?xml version="1.0" standalone="no"?>
<!DOCTYPE svg PUBLIC "-//W3C//DTD SVG 20010904//EN"
 "http://www.w3.org/TR/2001/REC-SVG-20010904/DTD/svg10.dtd">
<svg version="1.0" xmlns="http://www.w3.org/2000/svg"
 width="600.000000pt" height="477.000000pt" viewBox="0 0 600.000000 477.000000"
 preserveAspectRatio="xMidYMid meet">

<g transform="translate(0.000000,477.000000) scale(0.100000,-0.100000)"
fill="#000000" stroke="none">
<path d="M3885 4254 c-137 -34 -215 -125 -215 -248 1 -118 63 -194 199 -242
42 -15 100 -36 128 -46 94 -34 142 -108 124 -188 -15 -67 -50 -108 -113 -135
-49 -20 -94 -19 -143 4 -53 24 -74 50 -96 113 l-18 53 -52 3 -52 3 7 -46 c20
-147 152 -245 313 -232 153 12 260 119 262 262 1 69 -15 119 -51 161 -41 46
-91 74 -218 120 -129 47 -176 85 -186 149 -17 115 106 213 220 175 42 -14 95
-71 103 -111 3 -16 11 -29 17 -30 22 -2 91 3 95 7 9 9 -24 98 -50 133 -36 51
-116 89 -194 95 -33 3 -69 3 -80 0z"/>
<path d="M610 3775 l0 -465 50 0 50 0 2 208 3 207 183 3 182 2 0 45 0 45 -185
0 -185 0 0 165 0 165 185 0 185 0 0 45 0 45 -235 0 -235 0 0 -465z"/>
<path d="M1560 3775 l0 -465 55 0 55 0 0 421 0 421 133 -4 c92 -3 143 -9 170
-21 134 -58 162 -249 52 -360 -31 -30 -69 -42 -167 -52 l-67 -6 36 -57 c20
-31 78 -121 130 -199 l92 -143 56 0 c30 0 55 2 55 5 0 3 -49 79 -110 170 -60
91 -110 167 -110 170 0 3 11 5 24 5 76 0 159 59 204 145 22 42 26 64 27 131 0
73 -3 88 -35 150 -66 129 -136 154 -428 154 l-172 0 0 -465z"/>
<path d="M2660 3775 l0 -465 260 0 260 0 0 45 0 45 -205 0 -205 0 0 165 0 165
205 0 205 0 0 45 0 45 -205 0 -205 0 0 165 0 165 205 0 205 0 0 45 0 45 -260
0 -260 0 0 -465z"/>
<path d="M4720 3775 l0 -465 50 0 50 0 0 210 0 210 225 0 225 0 0 -210 0 -210
55 0 55 0 0 465 0 465 -55 0 -55 0 0 -205 0 -205 -225 0 -225 0 0 205 0 205
-50 0 -50 0 0 -465z"/>
<path d="M3722 2899 c-137 -23 -275 -126 -337 -253 -176 -360 110 -756 505
-698 140 20 277 109 338 220 l23 42 -57 0 c-54 0 -59 -2 -91 -40 -181 -212
-513 -165 -631 88 -24 51 -27 69 -27 167 0 100 3 115 28 166 67 137 178 211
324 218 58 2 97 -2 132 -14 61 -20 158 -90 186 -134 19 -29 24 -31 78 -31 l58
0 -23 42 c-36 66 -126 149 -198 185 -100 49 -192 61 -308 42z"/>
<path d="M940 2532 c0 -203 -4 -372 -10 -391 -22 -78 -104 -123 -181 -100 -46
14 -97 67 -106 110 -5 28 -7 29 -64 29 -33 0 -59 -4 -59 -8 0 -27 32 -107 53
-135 14 -18 49 -46 78 -62 47 -26 64 -30 134 -30 69 0 87 4 132 29 51 28 90
72 114 131 10 22 14 134 17 408 l4 377 -56 0 -56 0 0 -358z"/>
<path d="M1582 2523 c3 -412 2 -405 77 -486 61 -66 126 -92 231 -92 66 0 95 5
131 21 66 31 123 86 150 147 24 51 24 58 27 415 l3 362 -55 0 -56 0 0 -348 0
-348 -26 -52 c-72 -144 -279 -142 -353 3 l-26 49 -3 348 -3 348 -50 0 -50 0 3
-367z"/>
<path d="M2730 2425 l0 -465 55 0 55 0 0 465 0 465 -55 0 -55 0 0 -465z"/>
<path d="M4730 2425 l0 -465 260 0 260 0 0 45 0 45 -205 0 -205 0 0 165 0 165
205 0 205 0 0 45 0 45 -205 0 -205 0 0 165 0 165 205 0 205 0 0 45 0 45 -260
0 -260 0 0 -465z"/>
<path d="M527 1333 c-4 -3 -7 -192 -7 -420 l0 -413 40 0 c39 0 40 1 40 36 l0
36 40 -32 c104 -83 245 -74 340 22 91 91 104 268 28 383 -82 124 -271 149
-371 48 l-37 -36 0 191 0 192 -33 0 c-19 0 -37 -3 -40 -7z m371 -382 c42 -29
72 -90 79 -157 16 -154 -93 -266 -229 -234 -176 43 -198 314 -33 409 34 20
145 9 183 -18z"/>
<path d="M2812 1277 c-9 -11 -12 -121 -10 -423 l3 -409 43 -3 42 -3 -2 423 -3
423 -31 3 c-18 2 -36 -3 -42 -11z"/>
<path d="M5198 1132 c-31 -18 -58 -67 -58 -104 0 -37 37 -88 76 -104 103 -43
201 66 149 166 -29 56 -112 77 -167 42z m136 -33 c55 -65 22 -155 -61 -166
-39 -5 -46 -2 -78 30 -46 46 -49 95 -6 138 24 23 38 29 74 29 38 0 49 -5 71
-31z"/>
<path d="M5220 1029 c0 -44 4 -68 10 -64 6 3 10 17 10 31 0 32 14 30 40 -7 25
-35 40 -31 20 6 -10 19 -10 27 -1 39 26 32 -11 66 -70 66 -5 0 -9 -32 -9 -71z
m65 31 c0 -8 -10 -16 -22 -18 -18 -3 -23 2 -23 18 0 16 5 21 23 18 12 -2 22
-10 22 -18z"/>
<path d="M1113 1028 c3 -7 53 -131 111 -275 l106 -262 -40 -103 c-22 -57 -40
-107 -40 -111 0 -5 17 -7 38 -5 l37 3 142 375 c78 206 142 379 143 383 0 5
-16 7 -36 5 l-36 -3 -74 -195 c-41 -107 -79 -206 -85 -220 -10 -23 -19 -5 -99
195 l-88 220 -42 3 c-32 3 -41 0 -37 -10z"/>
<path d="M2282 989 c-44 -22 -102 -82 -130 -134 -10 -20 -15 -56 -15 -105 0
-93 27 -153 101 -222 39 -36 66 -52 122 -69 64 -19 78 -20 125 -10 132 30 234
156 235 292 0 40 -11 49 -50 39 -22 -5 -26 -13 -30 -60 -17 -171 -192 -256
-316 -154 l-29 24 76 72 c41 40 113 108 159 151 96 91 96 89 6 152 -53 37 -64
40 -134 43 -63 2 -85 -1 -120 -19z m209 -85 c18 -16 15 -21 -102 -133 -67 -64
-128 -117 -135 -119 -19 -5 -44 51 -44 99 0 84 61 166 140 187 40 10 110 -6
141 -34z"/>
<path d="M3203 999 c-78 -15 -138 -62 -183 -144 -33 -59 -30 -165 5 -236 80
-157 244 -222 387 -154 97 46 155 130 165 239 6 70 1 79 -43 67 -26 -7 -29
-11 -31 -57 -4 -127 -126 -226 -241 -195 -45 12 -102 46 -102 60 0 5 64 69
142 142 77 74 147 140 155 147 7 7 13 19 13 27 0 20 -116 93 -158 101 -20 3
-44 7 -52 9 -8 1 -34 -1 -57 -6z m131 -90 c20 -12 36 -24 36 -28 0 -11 -247
-241 -258 -241 -17 0 -37 63 -37 116 2 132 148 219 259 153z"/>
<path d="M3840 993 c-8 -3 -33 -22 -55 -42 l-40 -36 -5 35 c-5 32 -8 35 -40
35 l-35 0 -3 -272 -2 -273 38 0 39 0 6 173 c6 193 19 250 69 292 35 29 101 34
136 9 49 -34 56 -65 60 -276 l4 -198 39 0 39 0 0 178 c0 165 2 180 24 228 55
119 202 109 227 -16 4 -25 8 -123 9 -217 l0 -173 41 0 41 0 -4 218 c-4 242 -7
257 -74 308 -25 19 -51 29 -88 32 -66 5 -113 -14 -156 -66 l-34 -39 -21 31
c-35 52 -80 76 -144 75 -31 0 -63 -3 -71 -6z"/>
<path d="M4682 974 c-129 -64 -185 -236 -126 -383 18 -47 28 -50 60 -20 19 18
21 25 12 48 -6 14 -11 58 -11 96 0 104 36 166 116 200 50 21 99 19 151 -6 42
-19 46 -20 70 -4 31 20 32 27 8 48 -59 54 -194 64 -280 21z"/>
<path d="M4997 850 c-23 -18 -25 -24 -16 -48 6 -15 11 -55 11 -89 1 -102 -34
-168 -107 -202 -57 -27 -120 -27 -163 -1 -39 24 -49 25 -68 5 -61 -60 130
-123 242 -80 148 56 220 238 158 395 -9 22 -20 40 -24 40 -4 0 -19 -9 -33 -20z"/>
</g>
</svg>
