<?xml version="1.0" standalone="no"?>
<!DOCTYPE svg PUBLIC "-//W3C//DTD SVG 20010904//EN"
 "http://www.w3.org/TR/2001/REC-SVG-20010904/DTD/svg10.dtd">
<svg version="1.0" xmlns="http://www.w3.org/2000/svg"
 width="3840.000000pt" height="2160.000000pt" viewBox="0 0 3840.000000 2160.000000"
 preserveAspectRatio="xMidYMid meet">

<g transform="translate(0.000000,2160.000000) scale(0.100000,-0.100000)"
fill="#000000" stroke="none">
<path d="M26691 13421 c-13 -8 -11 -38 8 -213 22 -192 37 -297 44 -305 2 -2
18 2 35 8 28 9 31 16 37 64 4 29 4 67 0 84 -3 17 -3 36 1 43 5 7 9 76 10 153
0 77 3 147 5 155 3 12 -9 16 -61 18 -36 1 -71 -2 -79 -7z"/>
<path d="M27999 13403 c-1 -16 -2 -130 -3 -255 l-2 -228 32 0 c18 0 34 -4 36
-8 4 -13 148 -24 148 -13 0 5 -12 11 -27 13 -34 4 -34 -2 3 292 14 109 23 205
20 212 -4 11 -30 14 -106 14 l-100 0 -1 -27z"/>
<path d="M26615 12890 c-3 -5 3 -10 14 -10 12 0 21 5 21 10 0 6 -6 10 -14 10
-8 0 -18 -4 -21 -10z"/>
<path d="M27935 12879 l-70 -5 88 -2 c48 -1 87 0 87 2 0 9 -39 11 -105 5z"/>
<path d="M27281 8316 c-19 -79 -22 -76 85 -76 107 0 102 -5 69 75 -12 30 -14
31 -69 28 -34 -2 -56 1 -56 7 0 27 -19 5 -29 -34z"/>
<path d="M28295 8224 c-154 -18 -214 -28 -237 -39 -15 -7 -40 -16 -55 -20 -20
-4 -34 -17 -47 -45 -11 -22 -23 -40 -28 -40 -4 0 -8 -6 -8 -12 0 -7 -11 -35
-25 -63 -13 -27 -25 -60 -25 -73 0 -12 -9 -39 -20 -59 -11 -21 -21 -54 -21
-73 l-2 -35 -6 35 c-5 26 -8 11 -12 -60 -3 -52 -2 -96 3 -98 4 -2 3 -13 -4
-25 -8 -15 -9 -74 -2 -217 12 -266 9 -341 -13 -357 -16 -12 -16 -13 0 -13 22
0 22 -16 0 -24 -14 -6 -15 -9 -4 -16 8 -4 11 -15 8 -23 -3 -9 -1 -18 6 -21 7
-2 4 -5 -5 -5 -11 -1 -18 6 -18 18 0 10 -7 21 -15 25 -10 3 -15 -1 -15 -12 0
-13 -2 -14 -9 -4 -4 8 -19 12 -32 10 -18 -2 -24 -9 -23 -25 1 -29 -4 -29 -15
-1 -7 20 -16 23 -77 24 -52 2 -71 -1 -79 -13 -11 -14 -12 -14 -18 2 -5 12 -14
15 -31 11 -14 -3 -28 -2 -31 4 -8 13 -65 13 -65 -1 0 -6 8 -8 19 -4 11 3 22 1
26 -5 4 -6 -4 -10 -18 -10 -30 0 -36 -6 -30 -31 5 -16 7 -17 17 -6 6 8 21 17
33 20 17 4 23 0 25 -16 4 -28 34 -34 59 -11 11 10 20 14 19 9 -5 -21 1 -29 9
-16 8 12 13 12 24 3 12 -10 15 -7 20 18 4 16 12 30 18 30 7 0 9 -9 5 -24 -3
-14 -2 -27 3 -30 5 -3 11 8 15 24 3 17 10 30 16 30 6 0 6 -9 0 -26 -13 -34
-13 -36 8 -30 11 4 35 -1 55 -9 21 -8 37 -11 37 -6 0 5 18 8 40 8 22 -1 40 -6
40 -10 0 -5 3 -6 8 -4 4 3 6 -84 6 -193 -1 -182 -3 -202 -23 -240 -11 -22 -21
-46 -21 -53 -1 -7 -19 -28 -41 -47 -23 -19 -61 -54 -85 -77 -29 -28 -54 -43
-72 -44 -81 -4 78 -18 272 -24 121 -4 231 -11 245 -15 23 -7 23 -8 5 -9 -28
-1 -53 -29 -36 -40 9 -5 11 -57 7 -204 -4 -195 -4 -197 18 -208 36 -19 67 -51
67 -70 0 -10 11 -30 25 -44 24 -23 33 -25 108 -25 120 0 406 20 449 31 20 5
40 14 43 19 10 17 -30 226 -48 248 -7 9 -28 12 -61 11 l-51 -3 -3 48 c-2 27 1
52 6 55 13 8 19 151 8 171 -5 8 -6 12 -1 8 10 -10 37 11 29 23 -3 5 -15 7 -27
5 -12 -1 -16 -1 -9 1 33 12 4 18 -70 15 -54 -2 -78 1 -68 7 18 10 174 36 273
44 9 1 17 3 17 4 0 6 -61 63 -68 64 -12 1 -45 7 -84 14 -25 5 -43 3 -53 -5 -9
-7 -18 -10 -21 -7 -3 3 -8 399 -10 879 -2 480 -5 893 -8 918 -7 70 -37 90
-134 89 -42 -1 -90 -4 -107 -5z m-807 -1287 c2 -10 -3 -17 -12 -17 -18 0 -29
16 -21 31 9 14 29 6 33 -14z m612 -1137 c0 -22 -4 -40 -10 -40 -5 0 -10 18
-10 40 0 22 5 40 10 40 6 0 10 -18 10 -40z"/>
<path d="M27490 7870 c-36 -36 -21 -89 30 -105 20 -6 35 -38 25 -55 -9 -15
-45 -12 -45 4 0 8 -7 16 -15 20 -26 10 -18 -41 10 -60 32 -21 60 -11 75 27 16
38 2 72 -37 91 -15 7 -29 21 -31 31 -5 25 26 33 43 11 10 -14 17 -16 25 -8 8
8 5 18 -10 37 -26 32 -43 34 -70 7z"/>
<path d="M27655 7881 c-7 -12 -8 -211 -1 -218 13 -13 26 13 26 53 0 40 2 44
25 44 27 0 38 -24 33 -70 -2 -19 2 -25 17 -25 18 0 20 8 23 100 2 109 -8 144
-33 111 -8 -10 -12 -23 -9 -27 3 -5 0 -9 -7 -9 -8 0 -8 -4 -1 -13 16 -19 -2
-40 -27 -32 -17 5 -21 14 -21 45 0 38 -13 60 -25 41z"/>
<path d="M26962 7778 c1 -72 3 -89 7 -58 5 40 9 45 34 48 15 2 27 7 27 12 0 5
-12 10 -27 12 -23 2 -29 8 -31 36 -3 30 -1 32 27 32 17 0 31 5 31 10 0 6 -16
10 -35 10 l-35 0 2 -102z"/>
<path d="M27116 7864 c-10 -27 -7 -184 4 -184 6 0 10 29 10 68 0 84 8 112 29
112 43 0 57 -67 20 -91 -20 -14 -21 -15 -3 -52 10 -20 21 -37 26 -37 11 0 10
4 -4 34 -9 21 -8 29 4 43 8 10 18 26 21 36 7 20 -9 68 -26 79 -22 14 -75 9
-81 -8z"/>
<path d="M27300 7776 l0 -106 45 0 c33 0 45 4 45 15 0 11 -11 15 -36 15 -33 0
-35 2 -32 28 2 22 9 28 36 32 18 3 33 10 33 15 0 6 -15 12 -33 15 -27 4 -34
10 -36 33 -2 17 2 27 10 28 7 1 22 2 33 2 42 4 29 22 -17 25 l-48 3 0 -105z"/>
<path d="M27822 7860 c0 -14 2 -19 5 -12 2 6 2 18 0 25 -3 6 -5 1 -5 -13z"/>
<path d="M27792 7730 c0 -19 2 -27 5 -17 2 9 2 25 0 35 -3 9 -5 1 -5 -18z"/>
<path d="M27770 7614 c0 -8 5 -12 10 -9 6 3 10 10 10 16 0 5 -4 9 -10 9 -5 0
-10 -7 -10 -16z"/>
<path d="M27117 7545 c-9 -63 3 -145 24 -158 22 -14 66 -1 73 21 4 15 9 131 7
170 -1 7 -5 10 -11 7 -5 -3 -10 -41 -10 -84 0 -82 -12 -107 -43 -95 -18 7 -26
40 -30 129 l-2 60 -8 -50z"/>
<path d="M27457 7579 c-55 -32 -59 -134 -7 -184 24 -23 34 -26 63 -21 21 4 41
16 51 31 21 32 3 42 -30 16 -34 -27 -48 -26 -74 1 -27 29 -27 91 0 118 26 26
48 25 77 -2 34 -32 51 -10 19 25 -26 28 -66 35 -99 16z"/>
<path d="M27649 7568 c-2 -100 0 -179 6 -188 3 -5 26 -10 49 -10 37 0 44 3 48
23 4 20 1 22 -34 19 -35 -4 -38 -2 -38 22 0 24 4 26 39 26 32 0 39 3 37 18 -2
12 -14 18 -39 20 -31 3 -36 6 -33 25 2 16 11 23 34 25 24 2 32 8 32 23 0 16
-7 19 -50 19 -45 0 -50 -2 -51 -22z"/>
<path d="M27010 7506 c0 -41 -3 -81 -6 -90 -8 -21 -30 -20 -44 2 -10 16 -11
16 -8 -2 5 -30 34 -44 53 -25 17 17 31 189 14 189 -5 0 -9 -33 -9 -74z"/>
<path d="M27310 7479 c0 -133 20 -130 24 4 3 77 0 97 -10 97 -11 0 -14 -22
-14 -101z"/>
<path d="M26930 6970 c0 -5 5 -10 10 -10 6 0 10 5 10 10 0 6 -4 10 -10 10 -5
0 -10 -4 -10 -10z"/>
<path d="M27294 6972 c-7 -5 -6 -15 2 -30 l11 -23 5 26 c6 27 -2 38 -18 27z"/>
<path d="M27172 6953 c-16 -29 -16 -30 13 -35 20 -4 23 -2 16 11 -5 9 -10 23
-13 31 -4 12 -7 10 -16 -7z"/>
<path d="M27227 6963 c-12 -12 -7 -21 14 -26 12 -3 18 -10 15 -16 -4 -6 -14
-7 -24 -4 -13 5 -15 3 -5 -7 12 -13 43 -7 43 9 0 5 -7 16 -15 24 -11 12 -12
17 -2 20 8 4 6 6 -4 6 -9 1 -19 -2 -22 -6z"/>
<path d="M26990 6950 c0 -5 5 -10 10 -10 6 0 10 5 10 10 0 6 -4 10 -10 10 -5
0 -10 -4 -10 -10z"/>
<path d="M27120 6950 c0 -5 7 -7 15 -4 8 4 15 8 15 10 0 2 -7 4 -15 4 -8 0
-15 -4 -15 -10z"/>
<path d="M27020 6929 c0 -5 5 -7 10 -4 6 3 10 8 10 11 0 2 -4 4 -10 4 -5 0
-10 -5 -10 -11z"/>
<path d="M27262 6760 c0 -14 2 -19 5 -12 2 6 2 18 0 25 -3 6 -5 1 -5 -13z"/>
<path d="M27296 6769 c3 -6 1 -15 -6 -19 -14 -9 -7 -40 10 -40 5 0 10 8 10 18
1 16 1 16 11 0 5 -10 15 -18 22 -18 8 0 8 3 2 8 -6 4 -16 19 -24 35 -8 15 -18
27 -23 27 -5 0 -6 -5 -2 -11z"/>
<path d="M27395 6761 c-8 -14 13 -42 29 -40 6 1 19 -1 29 -6 28 -12 29 -1 3
30 -17 20 -25 24 -29 14 -5 -12 -7 -12 -15 0 -7 9 -11 10 -17 2z"/>
<path d="M33638 3863 c-21 -8 -38 -19 -38 -24 0 -5 -20 -9 -43 -9 -24 0 -68
-8 -98 -19 -31 -10 -74 -22 -97 -26 -23 -4 -44 -11 -48 -16 -3 -5 -14 -9 -26
-9 -11 0 -31 -9 -44 -19 -13 -11 -47 -22 -74 -26 -33 -5 -50 -12 -50 -21 0
-11 -17 -14 -72 -14 -48 -1 -80 -6 -92 -15 -11 -8 -27 -15 -35 -15 -9 0 -38
-12 -66 -25 -27 -14 -59 -25 -70 -25 -12 0 -38 -9 -60 -20 -22 -11 -47 -20
-58 -20 -10 0 -27 -9 -39 -20 -12 -11 -31 -21 -42 -21 -35 -2 -40 -4 -71 -20
-16 -9 -49 -20 -72 -24 -25 -4 -43 -12 -43 -19 0 -12 -113 -56 -143 -56 -7 0
-23 -9 -34 -20 -23 -21 -47 -28 -108 -34 -61 -6 -109 -18 -117 -29 -3 -6 -35
-18 -70 -27 -34 -9 -99 -27 -143 -38 -121 -33 -499 -78 -980 -117 -334 -27
-936 -60 -1390 -75 -176 -5 -358 -12 -405 -15 -47 -2 -203 -4 -347 -5 -181 0
-263 -3 -263 -11 0 -7 46 -9 148 -5 81 3 287 8 457 11 514 10 1299 41 1650 65
77 5 217 14 310 20 435 28 1135 85 1360 111 50 6 162 17 250 24 364 32 505 46
600 60 55 7 132 17 170 20 39 4 102 13 140 20 39 8 90 17 115 20 25 3 50 13
57 21 6 8 20 16 32 17 12 1 21 5 21 11 0 5 16 22 35 39 19 16 35 34 35 39 0 5
8 17 19 26 21 20 59 110 67 163 4 21 1 58 -7 83 -11 39 -15 43 -32 32 -15 -9
-22 -7 -37 12 -10 12 -23 22 -30 22 -6 0 -8 5 -5 10 4 6 -10 10 -34 10 -21 0
-41 4 -43 9 -1 5 -20 2 -40 -6z"/>
</g>
</svg>
